<?xml version="1.0" standalone="no"?>
<!DOCTYPE svg PUBLIC "-//W3C//DTD SVG 20010904//EN"
 "http://www.w3.org/TR/2001/REC-SVG-20010904/DTD/svg10.dtd">
<svg version="1.0" xmlns="http://www.w3.org/2000/svg"
 width="317.000000pt" height="317.000000pt" viewBox="0 0 317.000000 317.000000"
 preserveAspectRatio="xMidYMid meet">
<metadata>
Created by potrace 1.11, written by Peter Selinger 2001-2013
</metadata>
<g transform="translate(0.000000,317.000000) scale(0.100000,-0.100000)"
fill="#000000" stroke="none">
<path d="M1084 3139 c-3 -5 -20 -7 -37 -4 -23 4 -49 -1 -90 -19 -62 -28 -87
-32 -87 -15 0 6 -9 8 -21 4 -12 -4 -24 -2 -28 4 -4 6 -21 13 -38 17 -26 5 -33
2 -43 -17 -13 -25 -57 -68 -72 -70 -4 -1 -11 -2 -16 -3 -14 -2 -77 -46 -67
-46 6 0 0 -8 -12 -18 -12 -9 -23 -30 -25 -47 -3 -31 -48 -71 -85 -77 -10 -2
-24 -9 -32 -16 -7 -7 -20 -11 -27 -8 -7 3 -11 0 -8 -7 5 -14 -49 -77 -67 -77
-6 0 -9 7 -5 18 5 15 4 14 -9 -2 -8 -10 -12 -23 -9 -27 8 -14 -24 -66 -55 -88
-16 -11 -32 -32 -35 -46 -4 -14 -13 -25 -20 -25 -16 0 -27 -55 -13 -69 12 -12
12 -131 0 -140 -4 -3 -9 -10 -10 -16 -7 -30 -31 -87 -41 -97 -16 -16 -15 -29
5 -43 14 -11 15 -17 5 -39 -6 -14 -9 -34 -5 -43 7 -18 49 -76 89 -123 12 -14
27 -41 33 -60 21 -62 36 -90 48 -90 7 0 13 -4 13 -10 0 -5 7 -7 15 -4 8 4 15
1 15 -5 0 -6 4 -11 9 -11 11 0 68 -55 73 -71 5 -14 41 -23 83 -20 17 1 83 3
148 5 65 2 128 8 140 13 53 25 81 33 143 43 76 12 104 7 104 -21 0 -36 31 -55
83 -51 29 3 53 -1 62 -8 13 -11 14 -10 9 6 -7 18 -6 18 15 -1 13 -11 27 -27
32 -36 10 -19 -8 -92 -21 -84 -5 3 -12 0 -16 -6 -5 -8 -3 -9 6 -4 10 6 11 1 6
-21 -4 -16 -10 -49 -13 -72 -5 -39 -2 -47 26 -76 17 -18 28 -36 24 -41 -5 -4
-3 -5 3 -2 6 4 19 -2 29 -13 10 -11 14 -20 9 -20 -5 0 -2 -5 7 -10 9 -5 20
-22 24 -37 3 -15 17 -38 31 -51 13 -14 22 -28 19 -32 -3 -4 1 -12 8 -18 8 -7
13 -43 15 -105 1 -79 -2 -99 -17 -118 -33 -44 -43 -70 -48 -139 -5 -64 9 -140
26 -140 4 0 20 -27 36 -60 16 -33 33 -60 37 -60 5 0 7 -4 3 -9 -3 -5 -1 -12 5
-16 5 -3 10 -18 10 -33 0 -44 60 -205 86 -233 13 -14 21 -28 18 -32 -4 -4 1
-9 10 -13 9 -3 14 -10 11 -14 -2 -4 6 -19 19 -33 19 -20 23 -34 19 -58 -6 -39
12 -83 43 -104 30 -19 52 -19 100 1 28 12 54 14 95 10 36 -4 60 -3 64 4 3 5
14 10 24 10 32 0 123 57 149 92 7 10 18 15 24 12 6 -4 8 -3 5 3 -3 5 10 25 29
44 20 19 48 54 62 79 14 25 43 63 63 85 87 94 90 98 83 130 -3 17 -6 42 -5 57
1 14 -3 37 -8 51 -8 20 -6 29 9 42 10 9 24 14 31 9 8 -4 10 -3 5 4 -4 7 -2 12
3 12 6 0 21 11 33 25 11 13 26 22 31 18 6 -3 7 -1 4 5 -4 6 18 21 52 37 67 31
106 74 95 107 -3 12 -6 58 -6 102 0 55 -5 92 -16 115 -21 45 -22 70 -6 102 7
15 11 29 8 32 -3 2 -5 27 -6 54 0 51 31 120 47 105 5 -4 5 -1 1 6 -5 9 8 29
38 58 25 24 46 46 46 48 0 6 69 74 112 111 90 77 230 325 233 414 1 27 -1 55
-5 62 -9 14 -54 7 -103 -15 -18 -8 -49 -17 -71 -21 -21 -3 -53 -14 -72 -23
-32 -15 -35 -15 -50 4 -8 10 -13 12 -9 4 4 -8 -2 -4 -13 10 -11 13 -18 28 -15
33 2 4 -1 14 -7 22 -6 8 -9 19 -5 25 4 6 2 9 -3 8 -10 -3 -51 26 -98 69 -13
12 -31 23 -41 25 -10 2 -19 12 -22 23 -2 11 -12 32 -23 47 -11 16 -17 32 -14
36 3 5 -1 18 -10 28 -14 18 -14 17 -3 -6 l12 -25 -26 23 c-14 13 -28 40 -32
60 -7 39 -36 101 -67 142 -10 15 -20 36 -21 47 0 12 -4 20 -8 17 -4 -2 -14 10
-23 26 -8 17 -24 46 -36 65 -12 19 -17 35 -12 35 37 0 54 68 27 106 -8 12 -11
25 -7 29 4 5 1 5 -5 1 -8 -4 -13 -1 -13 8 0 9 -3 16 -7 17 -59 5 -83 9 -111
14 -22 5 -40 2 -57 -9 -26 -17 -46 -17 -150 6 -64 14 -127 42 -117 53 4 5 1 5
-5 1 -7 -4 -13 -3 -13 2 0 5 -11 12 -25 14 -13 3 -22 2 -20 -3 3 -4 -5 -9 -17
-11 -26 -4 -69 -63 -61 -84 7 -19 -33 -18 -67 1 -14 8 -35 14 -48 15 -14 0
-27 9 -34 24 -11 25 -71 56 -109 56 -11 0 -18 4 -15 9 4 5 -3 7 -14 4 -12 -3
-22 1 -26 10 -3 9 -12 13 -20 10 -8 -3 -14 0 -14 6 0 6 7 11 15 11 16 0 31 43
20 59 -3 6 -1 11 4 11 6 0 11 11 11 25 0 29 11 27 -183 30 -76 2 -140 -1 -143
-6z m196 -39 c0 -14 -13 -51 -30 -83 -16 -31 -27 -58 -25 -58 16 -4 26 -7 35
-8 18 -2 30 -78 30 -202 0 -133 4 -145 53 -162 9 -4 17 -10 17 -15 0 -5 -39
-33 -86 -63 -48 -30 -106 -71 -129 -91 -34 -31 -50 -38 -83 -38 -34 0 -41 4
-46 25 -6 24 -58 60 -69 49 -3 -3 -14 1 -24 10 -10 9 -61 53 -113 98 -152 131
-230 210 -230 234 0 18 13 26 78 48 42 14 85 28 95 30 9 3 22 8 29 12 6 4 8 3
5 -3 -4 -6 -1 -13 7 -16 10 -4 12 3 9 28 -3 27 1 34 20 39 12 3 31 3 42 1 29
-7 60 19 50 42 -14 31 -13 94 2 89 7 -3 12 -1 10 5 -3 16 94 50 125 44 14 -4
29 -1 33 5 4 7 40 10 101 8 93 -3 94 -3 94 -28z m100 19 c0 -4 -5 -9 -12 -11
-8 -3 -8 -9 0 -24 9 -16 6 -23 -15 -40 -31 -24 -26 -49 12 -64 17 -6 23 -14
19 -25 -4 -9 -9 -14 -11 -11 -9 8 -43 -28 -43 -46 0 -35 -18 -26 -35 17 -9 25
-23 49 -31 53 -13 7 -11 16 10 59 15 28 26 63 26 77 0 25 3 27 40 24 22 -1 40
-5 40 -9z m-495 -51 c3 4 3 -17 -1 -46 -5 -39 -3 -52 6 -52 31 0 -3 -13 -40
-15 -44 -3 -74 -21 -66 -42 4 -8 -2 -13 -17 -13 -12 0 -35 -7 -50 -15 -16 -8
-47 -20 -70 -26 -56 -14 -87 -35 -87 -59 0 -18 -5 -19 -47 -13 -102 14 -103
15 -19 56 74 36 76 37 76 73 0 27 3 35 14 31 9 -4 13 -1 11 6 -7 19 6 32 70
65 34 19 70 47 83 67 l24 34 53 -29 c29 -16 56 -26 60 -22z m628 -135 c25 -12
32 -24 28 -46 -1 -5 3 -6 8 -3 5 4 12 2 16 -4 3 -5 15 -10 26 -10 11 0 37 -9
58 -19 34 -18 40 -18 60 -5 13 10 21 26 21 44 0 23 7 33 30 45 16 8 34 15 40
15 15 0 95 -53 97 -65 0 -5 4 -115 8 -242 7 -212 6 -233 -9 -233 -9 0 -16 -5
-16 -10 0 -6 -36 8 -80 32 -54 29 -75 45 -67 51 8 6 6 7 -6 3 -21 -7 -171 67
-160 79 5 4 2 5 -5 1 -7 -4 -20 -2 -28 5 -12 10 -15 10 -12 -1 2 -7 -8 -19
-22 -26 -21 -11 -28 -11 -47 1 -12 8 -29 15 -38 15 -10 0 -13 5 -9 12 4 7 3 8
-5 4 -7 -5 -20 1 -30 13 -10 12 -25 21 -33 21 -26 0 -35 42 -30 140 3 70 9
101 22 117 10 12 20 20 23 17 3 -3 4 3 3 12 0 11 10 24 27 32 15 7 27 17 27
22 0 12 68 1 103 -17z m496 -57 c66 -13 78 -13 108 2 28 14 40 14 83 3 27 -7
54 -10 59 -6 14 8 41 -47 41 -84 0 -42 -16 -47 -36 -11 -10 16 -22 30 -26 30
-4 0 -8 7 -8 15 0 17 -16 20 -25 5 -4 -6 -11 -7 -17 -4 -7 4 -8 2 -4 -5 4 -6
11 -9 16 -6 4 3 11 -6 14 -20 4 -14 11 -25 16 -25 6 0 10 -6 10 -14 0 -7 7
-19 15 -26 9 -7 14 -19 11 -27 -3 -8 -2 -12 2 -9 12 7 78 -113 74 -132 -2 -9
-12 -27 -23 -40 -18 -23 -20 -24 -201 -22 -100 0 -183 2 -184 3 -7 8 -15 387
-8 387 5 0 42 -6 83 -14z m-1451 -112 c2 -1 1 -12 -3 -23 -6 -18 -14 -21 -69
-21 -63 0 -64 0 -70 -31 -3 -17 -6 -42 -6 -55 0 -18 -6 -24 -22 -24 -36 0 -47
-13 -50 -54 l-3 -38 -54 7 c-84 11 -84 11 -44 66 19 27 43 54 53 59 10 5 20
21 24 34 3 14 21 35 39 47 17 13 35 28 40 35 5 9 29 11 85 7 42 -3 79 -7 80
-9z m93 -102 c-18 -3 -21 -11 -21 -50 0 -30 -3 -42 -9 -34 -5 8 -6 -7 -3 -37
2 -27 1 -93 -3 -146 l-7 -95 -99 0 -98 0 -36 -36 c-29 -29 -39 -33 -50 -24 -8
7 -12 16 -9 21 3 5 1 9 -5 9 -6 0 -8 6 -5 14 7 18 -52 31 -98 22 -27 -5 -29
-4 -17 10 9 11 14 49 16 108 1 50 5 90 10 90 4 -1 39 -4 77 -8 67 -7 68 -6 63
15 -9 35 9 67 40 71 24 3 28 8 31 43 2 22 8 43 14 46 5 3 10 10 11 15 1 5 28
7 60 5 51 -3 57 -1 57 16 0 36 14 34 57 -9 39 -38 42 -43 24 -46z m67 -45 c12
-12 20 -28 17 -35 -4 -12 -3 -12 9 -3 8 7 16 8 18 4 1 -4 20 -21 40 -36 21
-15 37 -33 35 -40 -1 -7 3 -11 9 -10 7 1 28 -13 47 -32 20 -20 46 -35 60 -35
12 0 28 -5 35 -12 14 -14 16 -42 2 -33 -6 3 -7 -1 -4 -9 3 -9 16 -16 29 -16
21 0 22 -3 18 -47 -3 -27 -10 -52 -16 -58 -7 -7 -8 -5 -3 5 4 8 -1 5 -11 -7
-15 -18 -31 -22 -93 -26 -41 -2 -93 -11 -114 -20 -31 -14 -42 -15 -55 -5 -13
10 -14 10 -4 -1 9 -11 9 -17 -2 -27 -7 -8 -17 -14 -22 -14 -16 0 -60 -45 -88
-90 -16 -25 -28 -46 -27 -47 1 -2 2 -9 2 -15 0 -7 -5 -5 -11 5 -5 9 -7 23 -3
30 5 7 1 7 -10 -2 -12 -10 -14 -16 -5 -22 7 -4 -1 -10 -21 -14 -37 -8 -65 9
-40 25 11 7 11 10 2 10 -7 0 -10 5 -7 10 3 6 0 13 -9 16 -8 3 -13 11 -10 18 3
7 -4 21 -16 31 -11 10 -20 13 -20 8 0 -6 -7 -14 -16 -17 -9 -4 -13 -2 -8 5 5
8 2 9 -11 1 -13 -7 -22 -6 -30 2 -25 24 -27 116 -3 116 5 0 6 -6 2 -12 -6 -10
-4 -10 7 0 9 8 51 12 134 12 87 0 116 -3 105 -11 -13 -9 -13 -10 0 -6 15 4 16
7 19 47 1 18 7 21 49 20 26 -1 64 3 84 8 27 7 36 7 31 -1 -4 -6 0 -8 10 -4 17
6 31 -18 20 -36 -3 -7 -3 -9 2 -5 4 4 14 3 22 -3 19 -17 16 -1 -9 40 -29 47
-36 51 -65 36 -13 -7 -56 -13 -95 -14 l-71 -1 7 57 c3 32 6 108 7 168 1 61 3
113 5 117 7 11 48 -4 72 -25z m722 -87 c11 -11 22 -21 23 -22 2 -2 11 3 20 11
15 12 17 10 17 -13 0 -15 6 -39 14 -54 8 -17 10 -35 5 -47 -4 -11 -8 -47 -8
-80 -1 -57 -3 -62 -42 -99 -23 -21 -42 -44 -43 -51 -5 -34 -28 -45 -77 -39
-36 5 -55 2 -72 -9 -17 -11 -28 -12 -41 -5 -10 6 -34 8 -53 5 -26 -5 -39 -1
-54 14 -14 14 -31 19 -57 17 -31 -3 -40 -9 -55 -39 -16 -34 -20 -36 -41 -26
-14 7 -22 15 -20 19 3 5 -4 8 -16 8 -12 0 -19 4 -16 9 3 5 -1 14 -9 21 -8 7
-15 18 -15 24 0 6 5 4 10 -4 8 -11 9 -8 5 11 -7 28 -6 29 97 41 9 1 14 6 12
10 -3 4 -1 8 5 8 5 0 12 19 16 43 11 70 15 77 42 77 16 0 41 16 71 45 25 25
49 45 54 45 5 0 24 11 42 25 18 14 36 25 39 25 3 0 23 11 43 25 44 30 77 32
104 5z m191 -31 c103 -50 133 -70 117 -81 -9 -6 -6 -7 9 -3 15 4 40 -3 73 -21
l50 -27 0 -69 c0 -39 -4 -68 -10 -68 -5 0 -12 0 -15 0 -7 0 -42 -34 -42 -40
-2 -33 -4 -40 -12 -36 -5 4 -8 -2 -6 -11 1 -10 -2 -23 -6 -29 -6 -7 -3 -16 6
-24 8 -7 15 -25 15 -40 0 -22 -7 -31 -29 -41 -17 -8 -36 -24 -43 -38 -15 -28
-84 -74 -98 -66 -6 4 -10 1 -10 -4 0 -6 -11 -11 -25 -11 -14 0 -25 -4 -25 -8
0 -4 -12 -7 -27 -6 -22 1 -28 6 -27 22 0 12 -4 19 -9 15 -4 -3 -17 4 -28 16
-20 21 -20 21 4 21 19 0 26 7 30 30 7 32 4 44 -24 106 -12 28 -24 41 -36 40
-12 -1 -19 7 -21 24 -2 19 9 36 43 70 43 42 45 47 45 102 0 31 5 68 11 82 8
18 9 29 2 38 -6 7 -16 30 -21 50 -9 32 -8 39 6 47 11 6 21 6 28 0 7 -5 40 -23
75 -40z m755 4 c-3 -8 -2 -12 3 -9 10 6 34 -49 46 -102 4 -18 16 -41 26 -51
20 -18 20 -19 -13 -38 -32 -19 -34 -22 -33 -79 0 -77 -11 -113 -47 -147 -21
-19 -28 -34 -25 -48 3 -12 0 -22 -9 -26 -8 -3 -14 -19 -14 -42 0 -42 -7 -54
-38 -70 -23 -12 -23 -14 -6 -32 9 -10 21 -16 25 -13 12 7 54 -34 54 -53 0 -9
15 -21 35 -28 l35 -12 -40 -8 c-22 -3 -60 -13 -84 -21 -61 -19 -104 -18 -134
6 -27 21 -62 26 -72 10 -3 -5 -11 -10 -16 -10 -6 0 -7 5 -3 12 4 6 3 8 -4 5
-10 -7 -62 46 -62 64 0 5 0 11 0 14 -1 11 -62 64 -80 70 -11 4 -20 11 -20 16
0 5 -9 9 -20 9 -13 0 -20 7 -20 18 0 10 -4 22 -9 28 -9 9 -12 19 -27 89 -3 17
-13 36 -22 43 -10 7 -11 12 -4 12 7 0 12 9 12 21 0 13 4 18 12 13 7 -5 8 -3 3
5 -12 21 16 61 42 61 24 0 24 1 20 90 -3 81 -1 90 15 90 15 0 18 8 18 50 l0
50 173 0 c125 0 177 -3 186 -12 11 -11 15 -9 25 6 25 43 46 58 62 45 8 -7 13
-18 10 -26z m125 -233 c6 -16 15 -30 19 -30 5 0 10 -10 12 -22 2 -13 11 -24
23 -27 17 -3 37 -16 92 -61 10 -8 8 -18 -7 -47 -10 -20 -17 -40 -14 -45 3 -5
0 -16 -7 -24 -11 -14 -10 -16 6 -14 40 4 50 -1 69 -33 11 -17 19 -36 18 -40
-2 -5 2 -6 7 -3 5 4 38 -7 71 -23 34 -17 65 -30 69 -29 19 2 31 -3 26 -12 -4
-6 -12 -7 -18 -4 -7 4 -9 4 -5 -1 12 -13 -12 -47 -28 -41 -8 3 -12 1 -9 -4 7
-11 -52 -50 -76 -50 -8 0 -38 -11 -65 -25 -27 -14 -50 -20 -52 -15 -6 18 -51
10 -66 -11 -11 -16 -20 -19 -38 -14 -35 11 -108 59 -108 71 0 6 -13 14 -30 18
-20 4 -30 11 -30 24 0 21 -33 55 -56 58 -28 4 -27 13 1 26 24 11 27 16 22 50
-5 38 12 66 32 54 11 -7 9 13 -3 32 -5 9 0 23 16 40 34 37 48 77 52 147 3 42
9 62 22 72 28 20 44 16 55 -17z m-2225 -9 c7 -13 18 -27 25 -32 24 -14 1 -22
-75 -25 -56 -2 -77 1 -86 12 -9 10 -9 14 -1 14 6 0 11 5 11 12 0 50 103 66
126 19z m322 6 c13 -10 14 -9 7 3 -6 12 -5 13 5 3 8 -7 12 -15 9 -17 -4 -4
-205 -10 -238 -7 -10 1 -11 4 -2 14 15 19 198 22 219 4z m-270 -138 c-8 -5
-17 0 -26 14 -7 12 -11 15 -8 5 4 -14 -6 -16 -77 -16 l-82 1 67 7 c54 7 73 14
95 36 l27 27 9 -33 c6 -24 5 -35 -5 -41z m526 47 c16 -25 13 -56 -6 -56 -6 0
-4 8 3 17 12 14 10 14 -13 -1 -32 -21 -36 -28 -10 -19 12 4 14 3 6 -6 -6 -6
-21 -13 -33 -16 -17 -3 -21 0 -17 11 3 9 1 12 -4 9 -6 -3 -10 -14 -10 -24 0
-9 -6 -23 -12 -30 -11 -11 -10 -13 5 -8 9 4 17 2 17 -5 0 -7 -20 -9 -57 -6
-32 3 -52 3 -45 1 6 -3 12 -13 12 -23 0 -10 6 -21 13 -23 6 -3 3 -6 -8 -7
l-20 -1 20 -9 c15 -6 9 -8 -22 -8 -24 0 -41 4 -38 8 3 4 -2 11 -11 14 -9 4
-12 11 -7 18 4 7 8 15 8 18 3 20 18 50 26 50 5 0 9 5 9 11 0 12 50 59 62 59 4
0 17 8 27 17 11 9 30 18 42 20 13 2 25 6 28 8 9 10 19 4 35 -19z m-639 4 c-3
-5 -11 -10 -16 -10 -6 0 -7 5 -4 10 3 6 11 10 16 10 6 0 7 -4 4 -10z m62 4
c-3 -3 -12 -4 -19 -1 -8 3 -5 6 6 6 11 1 17 -2 13 -5z m832 -58 c21 -18 157
-30 167 -15 4 8 26 10 65 5 36 -3 60 -2 65 5 5 9 54 -50 54 -65 0 -3 -13 -19
-30 -34 -16 -16 -30 -36 -30 -44 0 -20 -24 -40 -36 -30 -4 4 -2 -1 5 -10 9
-12 10 -18 2 -18 -6 0 -11 -8 -11 -18 0 -27 -43 -60 -71 -56 -29 5 -89 -44
-92 -75 0 -11 -5 -17 -9 -15 -4 3 -13 2 -20 -2 -7 -4 -32 -9 -56 -10 -33 -1
-45 3 -49 15 -16 51 -26 61 -63 61 -34 0 -37 2 -32 25 2 14 0 25 -5 25 -6 0
-8 11 -5 25 2 14 8 22 13 19 5 -3 6 3 2 12 -5 13 -3 15 7 9 9 -6 11 -4 6 4 -5
7 -1 20 7 29 23 28 27 50 11 67 -16 16 -10 40 8 29 6 -4 9 -3 5 2 -3 5 1 24 8
42 11 25 20 32 41 32 15 0 35 -6 43 -14z m-214 -16 c-3 -5 0 -12 6 -16 8 -4 9
-3 5 4 -4 7 -2 12 3 12 6 0 11 -4 11 -9 0 -5 2 -16 6 -24 10 -27 -116 -52
-132 -26 -9 15 25 41 44 34 7 -2 10 0 7 5 -3 6 1 10 10 10 8 0 18 7 21 15 4 8
10 12 15 9 5 -3 7 -9 4 -14z m-648 -13 c-2 -6 -10 -11 -18 -13 -7 -1 -22 -5
-31 -9 -13 -5 -18 -2 -18 8 0 8 -6 17 -12 20 -7 2 9 4 35 4 28 0 46 -4 44 -10z
m118 -13 c11 -16 15 -16 29 -5 10 9 16 9 16 3 0 -13 31 -4 43 12 5 7 7 3 6 -9
-1 -11 0 -22 1 -25 4 -12 11 -69 13 -117 2 -46 0 -52 -20 -56 -15 -3 -25 3
-34 20 -7 12 -16 23 -21 23 -5 0 -6 5 -3 10 3 6 1 10 -4 10 -6 0 -11 9 -11 19
0 12 -11 23 -31 30 -21 7 -29 16 -26 25 7 18 -16 28 -65 30 -26 1 -38 -2 -38
-12 0 -7 -5 -10 -10 -7 -15 9 9 37 26 31 7 -3 16 0 20 6 4 7 10 6 16 -3 5 -9
6 -4 2 15 l-7 29 42 -6 c24 -3 48 -13 56 -23z m1109 0 c3 -8 2 -12 -4 -9 -6 3
-10 10 -10 16 0 14 7 11 14 -7z m1216 -22 c0 -31 -4 -38 -20 -39 -15 -1 -20 4
-20 23 0 17 4 23 12 18 7 -5 8 -3 3 6 -6 10 8 29 23 30 1 0 2 -17 2 -38z
m-1713 -12 c3 -16 9 -30 14 -30 16 0 9 -18 -18 -51 -22 -25 -28 -44 -30 -83
-2 -85 -2 -81 -15 -68 -7 7 -16 45 -20 85 -11 105 -12 106 -20 101 -4 -3 -8 0
-8 6 0 6 11 15 25 20 13 5 30 18 37 30 18 28 27 25 35 -10z m510 -4 c-3 -7 -1
-18 5 -24 15 -15 -1 -52 -22 -52 -33 0 -33 -20 -1 -61 l32 -39 -21 -22 c-11
-12 -20 -24 -20 -27 0 -3 -4 -23 -9 -43 -5 -21 -6 -36 -2 -34 4 3 18 -16 32
-42 13 -26 27 -48 32 -50 4 -2 7 -10 7 -19 0 -13 -18 -14 -127 -10 -71 3 -129
6 -130 6 -1 1 0 8 3 16 4 8 0 23 -7 32 -12 14 -12 16 1 9 8 -4 5 1 -7 12 -13
11 -23 25 -23 31 0 6 -5 11 -10 11 -6 0 -10 8 -8 17 5 27 40 64 56 58 8 -3 10
0 6 7 -5 8 0 9 16 5 29 -8 80 27 80 54 0 11 7 22 16 26 8 3 13 12 10 20 -4 9
1 17 14 20 11 3 17 9 14 14 -6 11 8 39 38 73 26 29 33 32 25 12z m1539 -34
c-1 -26 -9 -61 -18 -77 -8 -17 -30 -59 -48 -95 -46 -89 -89 -152 -101 -145 -5
3 -6 0 -4 -8 6 -13 -46 -67 -65 -67 -5 0 -10 -3 -10 -7 0 -5 -20 -28 -45 -53
-24 -25 -44 -50 -45 -57 0 -7 -9 -17 -19 -23 -25 -13 -34 -13 -26 0 3 6 -1 10
-11 10 -15 0 -16 8 -11 74 7 76 24 129 38 120 5 -3 6 1 4 9 -6 15 16 28 89 51
28 9 60 26 73 38 19 18 25 19 40 7 15 -11 16 -11 6 1 -13 14 0 38 48 89 l22
23 -41 -7 c-34 -5 -52 -1 -116 31 -42 20 -76 39 -76 43 0 3 -3 16 -6 29 -8 27
5 28 32 4 22 -21 58 -37 49 -22 -3 6 1 11 9 11 18 2 24 3 46 11 25 10 175 57
182 57 4 1 6 -21 4 -47z m-2738 21 c18 -4 20 -8 10 -14 -10 -7 -10 -9 0 -9 6
0 12 -5 12 -11 0 -6 -7 -9 -15 -5 -10 4 -15 -1 -15 -14 0 -11 -7 -20 -16 -20
-8 0 -12 4 -9 10 3 5 -3 17 -14 27 -15 12 -18 20 -9 30 12 14 22 16 56 6z
m464 -34 c-12 -11 -19 -13 -24 -5 -13 19 -9 24 16 22 22 -1 23 -2 8 -17z m73
1 c7 0 15 -11 17 -25 3 -14 1 -25 -4 -25 -5 0 -6 -5 -2 -12 4 -7 9 -28 11 -48
2 -19 8 -47 13 -62 8 -24 6 -28 -9 -28 -10 0 -39 -9 -65 -21 -25 -11 -50 -18
-55 -15 -10 6 -6 53 11 154 8 48 16 67 36 83 16 12 28 16 30 10 2 -6 10 -11
17 -11z m990 0 c-3 -5 -2 -10 3 -10 5 0 12 -18 16 -40 4 -28 11 -40 22 -40 9
0 24 -8 33 -18 9 -9 29 -24 44 -32 25 -13 59 -59 56 -76 0 -4 4 -10 9 -13 6
-3 -14 -6 -43 -6 -30 0 -57 3 -61 7 -3 4 -16 1 -28 -7 -11 -8 -31 -15 -43 -15
-13 0 -23 -5 -23 -11 0 -14 -63 -3 -103 18 -27 13 -30 13 -48 -8 -10 -12 -19
-28 -19 -36 0 -9 -13 -13 -40 -13 -37 0 -41 -3 -46 -30 l-6 -30 -34 56 c-38
63 -44 112 -16 137 21 19 78 35 68 19 -3 -6 -1 -14 5 -18 8 -5 9 -3 4 6 -6 10
-4 12 8 7 11 -4 14 -2 11 7 -3 9 6 15 28 20 50 9 94 36 112 68 10 15 21 28 27
28 5 0 18 9 29 20 21 21 46 28 35 10z m-1225 -15 c8 0 19 -9 25 -20 7 -13 19
-20 39 -19 28 1 82 -37 69 -49 -3 -4 -12 1 -20 11 -12 16 -13 16 -6 -2 4 -12
3 -17 -4 -13 -6 4 -8 -3 -5 -18 4 -25 -11 -35 -23 -15 -3 6 -12 10 -18 9 -8 0
-8 -2 1 -6 11 -4 42 -65 42 -83 0 -5 -14 -2 -31 7 -16 8 -48 17 -70 20 -21 3
-39 9 -39 14 0 5 -7 6 -15 3 -8 -4 -26 -3 -39 0 -19 5 -24 11 -21 28 5 24 24
39 40 32 5 -3 2 1 -8 9 -12 10 -14 16 -6 19 9 3 9 12 2 34 -9 27 -8 30 21 40
17 6 36 8 41 5 6 -3 17 -6 25 -6z m296 -30 c3 -19 4 -42 0 -50 -3 -9 -2 -13 4
-10 6 4 10 -12 10 -39 0 -25 -5 -46 -10 -46 -15 0 -18 15 -23 103 -4 79 7 104
19 42z m-526 13 c0 -7 3 -23 6 -35 4 -14 2 -23 -5 -23 -7 0 -9 5 -6 10 3 6 2
10 -4 10 -6 0 -7 7 -4 17 4 10 2 14 -4 10 -6 -4 -13 0 -17 8 -4 10 1 15 14 15
11 0 20 -6 20 -12z m-34 -45 c-3 -7 -1 -13 4 -13 6 0 5 -8 -1 -18 -17 -27 -37
-23 -48 10 -7 20 -7 28 2 29 8 0 8 2 -1 6 -10 4 -9 8 5 19 15 11 20 11 31 -4
7 -9 10 -22 8 -29z m96 -67 c-2 -5 6 -6 18 -3 21 5 25 0 12 -21 -7 -9 -13 -8
-27 8 -10 11 -24 20 -32 20 -14 0 -16 10 -7 35 6 14 9 13 23 -7 9 -13 15 -27
13 -32z m-62 29 c0 -8 -4 -15 -10 -15 -5 0 -7 7 -4 15 4 8 8 15 10 15 2 0 4
-7 4 -15z m53 -68 c-3 -5 -1 -7 5 -3 6 3 13 2 17 -4 3 -5 21 -10 40 -10 29 0
32 -3 28 -21 -3 -11 -12 -23 -19 -26 -17 -6 -75 29 -92 57 -16 26 -6 46 14 29
7 -6 11 -16 7 -22z m297 7 c0 -8 -5 -12 -10 -9 -6 4 -8 11 -5 16 9 14 15 11
15 -7z m-70 -48 l35 -16 -57 2 c-36 1 -55 5 -51 11 3 6 -4 3 -18 -6 -32 -23
-41 -21 -28 7 9 20 17 23 48 20 20 -2 52 -10 71 -18z m1416 -58 c7 -5 23 -4
38 2 21 8 33 6 51 -6 37 -24 36 -97 -2 -136 -19 -20 -27 -39 -28 -68 -1 -23
-8 -49 -17 -59 -12 -14 -13 -25 -4 -62 7 -24 12 -47 13 -52 1 -4 4 -26 8 -50
4 -23 18 -61 31 -84 30 -52 30 -55 -1 -43 -34 13 -44 10 -71 -20 -16 -18 -19
-29 -12 -37 6 -7 7 -21 4 -30 -6 -15 -8 -15 -16 -3 -6 10 -7 1 -3 -25 3 -22
10 -41 15 -43 4 -2 8 -8 8 -13 0 -5 -18 1 -40 13 -23 14 -38 28 -35 36 3 7 0
10 -6 7 -6 -4 -8 -13 -5 -21 6 -15 -3 -18 -28 -8 -8 3 -12 12 -9 20 4 11 -2
14 -23 12 -61 -4 -129 2 -115 11 11 7 11 10 -3 18 -8 4 -17 20 -18 33 -2 14
-6 27 -10 30 -3 3 -3 24 1 47 5 23 5 41 2 40 -3 -1 -15 4 -26 10 -21 11 -65
10 -85 -2 -7 -4 -10 -15 -7 -25 7 -27 -41 -37 -58 -13 -48 67 -62 76 -114 75
-28 0 -53 3 -56 7 -5 9 -52 3 -70 -8 -6 -3 -2 2 8 12 14 12 33 16 67 14 27 -1
47 0 45 4 -3 3 7 17 20 29 14 13 25 32 25 41 0 10 18 53 39 96 22 43 42 97 46
120 4 23 13 47 20 53 7 6 13 27 13 47 0 19 6 42 14 49 12 12 19 12 46 -1 40
-20 102 -31 111 -19 11 16 60 34 66 24 3 -5 22 -3 43 4 31 11 43 11 77 -2 22
-8 45 -19 51 -24z m392 -4 c12 -8 20 -19 17 -24 -3 -5 0 -12 6 -16 8 -4 9 -3
5 4 -4 7 -1 12 9 12 9 0 14 -3 12 -7 -3 -5 13 -9 35 -10 33 -2 41 1 45 17 3
12 14 20 27 20 33 0 37 -9 21 -41 -17 -33 -22 -204 -5 -194 15 9 7 -26 -14
-57 -10 -15 -23 -25 -29 -21 -6 3 -7 1 -3 -5 4 -6 0 -24 -8 -40 -8 -16 -12
-33 -8 -37 4 -4 -5 0 -20 10 -15 9 -25 22 -21 28 4 6 1 7 -7 2 -8 -5 -24 4
-44 26 -17 19 -57 50 -88 69 -32 19 -58 41 -58 48 0 7 11 40 26 73 23 57 24
63 9 85 -8 13 -13 24 -10 24 3 0 1 9 -5 19 -8 16 -6 20 13 24 46 9 73 7 95 -9z
m-132 -18 c8 -8 14 -19 14 -25 0 -6 5 -20 12 -30 10 -16 8 -28 -12 -66 -26
-51 -53 -75 -85 -75 -11 0 -32 -6 -47 -14 -23 -12 -29 -12 -45 1 -10 8 -11 11
-3 7 12 -6 11 -3 -2 12 -16 18 -16 21 4 52 11 17 23 30 27 28 4 -3 6 10 6 27
0 18 4 38 10 46 7 11 7 13 -2 7 -7 -4 -13 -2 -13 3 0 6 5 11 11 11 5 0 7 4 4
10 -3 6 1 7 9 4 9 -3 13 -11 10 -18 -3 -6 1 -3 9 6 8 10 16 15 19 13 3 -3 16
-1 29 4 13 5 25 10 27 10 2 1 10 -5 18 -13z m-683 -22 c3 -4 -3 -18 -14 -33
-11 -14 -21 -42 -24 -61 -2 -19 -20 -66 -40 -103 -19 -37 -35 -74 -35 -82 0
-7 -12 -27 -26 -44 -19 -23 -34 -31 -57 -31 -18 0 -45 -7 -61 -15 -16 -9 -30
-14 -30 -13 -1 2 -8 15 -16 31 -12 24 -12 29 5 41 11 7 16 20 12 29 -7 18 19
32 29 16 4 -8 9 -8 17 0 7 7 14 5 23 -7 10 -12 13 -13 14 -3 0 7 6 11 14 8 10
-4 13 8 13 51 0 32 -4 63 -10 70 -6 8 -5 17 4 28 10 13 10 17 -2 25 -8 5 -24
7 -36 4 -13 -3 -23 -1 -23 5 0 6 29 10 69 10 73 0 85 6 96 53 6 22 13 27 39
27 18 0 35 -3 39 -6z m-330 -78 c8 -20 -2 -26 -40 -26 -22 0 -32 4 -28 11 4 6
13 8 21 5 7 -3 16 0 20 6 4 6 3 8 -4 4 -6 -3 -13 -2 -17 4 -4 6 4 10 18 10 14
0 27 -6 30 -14z m55 8 c13 -4 21 -13 20 -23 -2 -13 4 -15 31 -13 29 2 32 0 21
-13 -7 -8 -16 -13 -20 -10 -5 3 -12 0 -16 -6 -4 -7 -3 -10 2 -6 22 13 43 -19
41 -66 -1 -44 -2 -46 -27 -40 -14 3 -31 10 -37 16 -9 6 -13 6 -13 -1 0 -5 -12
-13 -26 -16 -24 -6 -25 -8 -10 -25 20 -22 20 -31 1 -31 -25 0 -66 32 -61 46 3
7 0 16 -6 20 -7 4 -8 3 -4 -4 4 -7 3 -12 -2 -12 -12 0 -33 25 -27 32 3 3 1 17
-5 32 -15 39 5 66 50 66 46 0 64 13 57 39 -6 23 -3 24 31 15z m1043 -190 c27
-15 50 -31 50 -36 1 -4 2 -14 3 -20 0 -7 6 -13 12 -13 6 0 27 -11 48 -25 l37
-25 -5 -70 c-3 -38 -8 -79 -11 -90 -4 -13 2 -30 15 -45 l21 -24 -23 -18 c-15
-12 -33 -17 -50 -14 -15 3 -30 2 -32 -3 -4 -6 -86 -8 -118 -2 -5 0 -8 14 -8
30 0 27 -6 32 -55 50 -31 12 -60 21 -66 21 -6 0 -7 5 -4 10 4 6 1 9 -5 8 -17
-4 -66 89 -75 140 -7 43 -5 45 40 45 13 0 17 54 5 62 -9 6 -6 24 12 61 6 14
20 21 39 22 15 0 36 5 44 10 12 6 25 1 47 -20 16 -15 52 -40 79 -54z m-241 21
c0 -22 -17 -35 -45 -35 -16 0 -14 17 5 47 17 26 40 19 40 -12z m6 -73 c-3 -5
-15 -12 -26 -15 -15 -4 -20 0 -20 13 0 10 8 20 18 23 20 4 37 -7 28 -21z
m-624 -118 c4 -3 17 -19 30 -36 12 -17 17 -28 10 -24 -8 5 -10 2 -6 -8 6 -17
41 -19 84 -7 17 5 24 14 23 28 -2 15 5 22 24 26 45 9 53 0 53 -62 0 -35 6 -65
15 -77 8 -10 15 -27 15 -37 0 -15 7 -17 40 -14 45 5 62 -8 53 -41 -4 -16 -13
-22 -32 -22 -61 0 -68 -7 -75 -77 -6 -55 -4 -69 14 -99 12 -19 19 -34 17 -34
-3 0 -13 -3 -23 -7 -12 -4 -15 -3 -10 6 6 10 4 10 -12 0 -16 -10 -29 -10 -60
-1 -22 7 -92 12 -156 12 -64 0 -116 4 -116 9 0 5 -13 11 -29 13 -17 2 -28 1
-25 -4 3 -4 -3 -8 -13 -8 -35 0 -14 109 35 182 24 37 24 40 15 143 -7 75 -15
111 -27 124 -13 15 -14 20 -4 24 14 6 148 -2 160 -9z m623 -108 c7 -1 31 -10
52 -20 21 -11 45 -22 53 -26 19 -9 26 -42 9 -38 -9 2 -12 -10 -10 -41 2 -26
-1 -41 -7 -37 -6 3 -9 -10 -8 -34 1 -36 -2 -40 -22 -40 -35 0 -112 -38 -155
-77 -21 -18 -43 -31 -49 -27 -6 4 -8 3 -5 -3 11 -18 -24 -38 -70 -39 -23 0
-43 3 -43 7 0 4 -21 9 -47 11 -38 2 -48 6 -47 20 1 10 -2 16 -6 13 -4 -3 -10
5 -13 16 -7 25 3 118 12 120 3 1 15 3 26 4 49 5 65 16 65 45 0 15 7 30 15 34
9 3 15 0 15 -9 0 -10 11 -15 35 -15 35 0 98 -32 124 -64 17 -20 40 -21 47 -1
4 8 11 12 17 8 6 -4 1 7 -11 24 -16 22 -28 30 -42 26 -27 -7 -38 38 -17 70 11
17 12 28 5 42 -13 23 16 48 45 39 11 -3 25 -7 32 -8z m164 -130 c-11 -13 2
-79 21 -101 22 -26 24 -69 4 -86 -13 -11 -15 -10 -13 2 5 31 -14 69 -37 75
-35 9 -49 30 -33 50 7 9 13 31 12 50 0 18 6 39 13 45 8 6 14 19 15 28 0 9 6 0
13 -19 7 -19 9 -39 5 -44z m252 -142 c6 -8 -1 -21 -26 -43 -38 -33 -45 -36
-60 -23 -6 4 -9 6 -8 3 4 -8 -18 -41 -28 -41 -10 0 -139 -98 -151 -115 -4 -5
-4 -12 0 -15 10 -7 15 -31 13 -62 -1 -14 4 -39 10 -54 9 -25 7 -31 -10 -45
-12 -10 -21 -21 -21 -26 0 -4 -18 -26 -41 -48 -40 -38 -41 -39 -55 -20 -8 11
-12 25 -9 33 2 7 1 11 -4 8 -4 -3 -6 27 -4 67 3 50 10 77 21 87 27 25 50 81
56 138 6 66 -6 100 -39 108 -14 3 -25 10 -25 16 0 5 -4 6 -10 3 -5 -3 -16 0
-24 7 -11 11 -9 15 16 25 17 7 52 13 78 13 43 0 49 -3 60 -30 7 -16 10 -36 7
-45 -4 -8 -1 -17 5 -21 7 -4 8 -3 4 4 -5 8 0 12 12 12 11 0 25 7 32 15 7 8 9
15 5 15 -4 0 -2 7 5 15 10 12 10 18 0 30 -6 8 -8 20 -4 26 4 7 3 9 -3 6 -13
-8 -43 35 -43 62 0 28 16 35 76 33 29 -1 55 2 58 6 2 4 20 7 40 7 19 -1 33 2
30 6 -2 4 2 9 8 12 10 3 14 -18 16 -77 2 -44 7 -85 13 -92z m-464 90 l1 -22
-24 21 c-29 25 -29 25 0 23 17 -1 23 -7 23 -22z m33 -123 c0 -5 17 -15 38 -22
60 -19 63 -25 56 -93 -7 -61 -23 -106 -52 -138 -15 -18 -38 -26 -28 -10 2 4
-14 6 -37 3 -31 -3 -44 1 -54 15 -8 11 -16 18 -18 17 -3 -2 -4 -2 -2 0 1 1
-17 20 -40 41 -24 21 -41 41 -39 45 3 4 -4 8 -15 8 -10 1 -19 0 -19 -2 0 -2
30 -34 66 -72 56 -58 62 -68 45 -71 -12 -2 -21 -9 -21 -16 0 -7 -11 -18 -25
-24 -14 -6 -25 -16 -25 -22 0 -6 -4 -8 -10 -5 -6 4 -7 -1 -3 -11 4 -12 3 -15
-5 -10 -7 4 -12 2 -12 -3 0 -6 -7 -11 -15 -11 -10 0 -15 -7 -13 -17 3 -15 -4
-18 -46 -16 -42 2 -52 -2 -69 -23 -29 -37 -71 -30 -75 13 -2 17 -10 37 -18 43
-9 8 -14 31 -14 61 0 45 2 49 24 49 23 0 25 4 31 75 7 67 10 75 29 77 46 3 81
3 91 -2 18 -9 65 -8 65 1 0 5 -4 9 -10 9 -5 0 -10 4 -10 8 0 5 19 8 42 8 36
-1 48 5 87 42 25 23 51 40 58 38 7 -3 10 1 6 10 -3 9 2 14 16 14 12 0 21 -4
21 -9z m-627 -77 c84 4 124 2 160 -9 37 -11 60 -12 102 -4 52 9 75 7 75 -9 0
-4 -26 -7 -57 -7 l-58 0 -10 -76 c-10 -74 -11 -76 -32 -68 l-23 8 0 -148 c0
-143 -1 -149 -21 -154 -26 -7 -65 7 -72 25 -5 10 -8 9 -17 -4 -6 -9 -17 -15
-24 -12 -17 7 -49 101 -42 121 3 8 2 11 -3 8 -9 -5 -24 25 -26 50 -4 45 -18
106 -26 110 -5 4 -7 11 -3 16 3 5 0 8 -8 7 -8 -2 -13 6 -12 19 0 12 -3 21 -7
20 -10 -3 -57 68 -61 90 -2 12 4 19 20 21 12 2 23 9 23 15 1 7 3 4 6 -7 5 -17
13 -18 116 -12z m371 -19 c-4 -8 -8 -15 -10 -15 -2 0 -4 7 -4 15 0 8 4 15 10
15 5 0 7 -7 4 -15z m270 -257 c0 -48 -5 -73 -17 -86 -23 -25 -21 -44 4 -60 16
-10 24 -10 35 -1 24 20 17 -9 -15 -54 -63 -92 -222 -220 -251 -202 -5 3 -11 1
-15 -5 -4 -6 -11 -8 -16 -5 -5 4 -9 2 -9 -4 0 -7 -8 -7 -26 0 -18 6 -44 6 -83
-2 -115 -23 -115 -23 -108 -6 3 9 1 19 -5 23 -7 4 -8 3 -4 -4 4 -7 3 -12 -1
-12 -5 0 -14 9 -21 20 -10 17 -9 25 5 47 13 19 14 25 4 18 -11 -6 -13 -4 -8 7
3 9 -3 24 -14 34 -10 9 -19 22 -19 27 0 6 -7 18 -15 27 -9 10 -13 24 -9 33 5
15 8 15 27 2 29 -20 50 -19 77 5 21 18 23 28 21 92 -2 73 6 89 14 27 7 -56 64
-68 101 -22 20 25 24 26 49 15 23 -11 31 -10 54 5 14 10 30 16 35 15 5 -2 4 4
-4 12 -10 13 -10 16 4 16 9 0 25 13 34 30 9 16 23 30 30 30 7 0 15 7 18 15 4
8 10 12 15 9 5 -3 6 -10 3 -16 -4 -7 -2 -8 5 -4 6 4 9 12 6 17 -13 19 18 35
59 29 l41 -5 -1 -67z m20 -104 c9 -23 8 -24 -13 -24 -11 0 -23 5 -27 12 -4 7
-3 8 4 4 7 -4 12 -1 12 8 0 21 16 21 24 0z"/>
<path d="M1430 2590 c-9 -6 -10 -10 -3 -10 6 0 15 5 18 10 8 12 4 12 -15 0z"/>
<path d="M680 2190 c-9 -6 -10 -10 -3 -10 6 0 15 5 18 10 8 12 4 12 -15 0z"/>
<path d="M665 2160 c-3 -6 1 -7 9 -4 18 7 21 14 7 14 -6 0 -13 -4 -16 -10z"/>
<path d="M600 2090 c-9 -6 -10 -10 -3 -10 6 0 15 5 18 10 8 12 4 12 -15 0z"/>
<path d="M1890 1956 c0 -2 8 -10 18 -17 15 -13 16 -12 3 4 -13 16 -21 21 -21
13z"/>
<path d="M828 2173 c7 -3 16 -2 19 1 4 3 -2 6 -13 5 -11 0 -14 -3 -6 -6z"/>
<path d="M763 2142 c1 -14 5 -18 11 -12 7 7 6 14 -1 21 -9 9 -12 7 -10 -9z"/>
<path d="M710 2125 c-7 -9 -11 -17 -9 -20 3 -2 10 5 17 15 14 24 10 26 -8 5z"/>
<path d="M355 2020 c-3 -5 1 -10 10 -10 9 0 13 5 10 10 -3 6 -8 10 -10 10 -2
0 -7 -4 -10 -10z"/>
<path d="M2919 1838 c-3 -11 -5 -48 -3 -48 11 0 23 40 14 45 -5 3 -10 5 -11 3z"/>
<path d="M539 1969 l-24 -20 28 17 c15 9 27 18 27 20 0 8 -8 4 -31 -17z"/>
<path d="M601 1964 c0 -11 3 -14 6 -6 3 7 2 16 -1 19 -3 4 -6 -2 -5 -13z"/>
<path d="M663 1815 c0 -8 4 -12 9 -9 5 3 6 10 3 15 -9 13 -12 11 -12 -6z"/>
<path d="M400 1881 c0 -5 7 -12 16 -15 14 -5 15 -4 4 9 -14 17 -20 19 -20 6z"/>
<path d="M1635 1591 c-3 -5 -2 -12 3 -15 5 -3 9 1 9 9 0 17 -3 19 -12 6z"/>
<path d="M2047 1099 c7 -7 15 -10 18 -7 3 3 -2 9 -12 12 -14 6 -15 5 -6 -5z"/>
<path d="M2135 1441 c-3 -5 -2 -12 3 -15 5 -3 9 1 9 9 0 17 -3 19 -12 6z"/>
<path d="M2176 1108 c3 -5 10 -6 15 -3 13 9 11 12 -6 12 -8 0 -12 -4 -9 -9z"/>
<path d="M2030 966 c0 -2 8 -10 18 -17 15 -13 16 -12 3 4 -13 16 -21 21 -21
13z"/>
<path d="M2030 656 c0 -2 8 -10 18 -17 15 -13 16 -12 3 4 -13 16 -21 21 -21
13z"/>
<path d="M2022 283 c-7 -3 -19 -21 -28 -41 -13 -31 -13 -38 0 -50 12 -12 18
-12 48 4 54 30 59 43 28 74 -21 21 -26 22 -48 13z m37 -31 c7 -14 5 -21 -10
-30 -10 -7 -26 -12 -34 -12 -14 0 -14 4 2 30 20 35 29 37 42 12z"/>
<path d="M118 1300 c-3 -17 -2 -32 0 -35 3 -3 41 -5 84 -5 l78 0 0 35 0 35
-79 0 -79 0 -4 -30z m142 0 c0 -18 -6 -20 -65 -19 -56 1 -65 4 -65 20 0 17 8
19 65 19 58 0 65 -2 65 -20z"/>
<path d="M323 1315 c4 -9 7 -25 7 -36 0 -30 20 -22 21 9 l1 27 7 -25 c6 -23
12 -25 66 -27 33 0 66 4 74 10 11 9 13 9 8 1 -4 -7 3 -13 17 -16 20 -4 23 -1
22 26 l-1 31 -75 2 c-41 1 -93 5 -114 9 -34 6 -38 4 -33 -11z"/>
<path d="M713 1313 c-12 -30 12 -48 61 -49 36 0 50 4 57 18 13 25 4 37 -29 37
-15 0 -40 2 -55 4 -20 4 -30 1 -34 -10z"/>
<path d="M1010 1320 c-19 -3 -60 -5 -92 -4 -47 1 -57 -1 -61 -17 -6 -22 15
-42 36 -33 8 3 25 0 37 -6 13 -7 20 -8 16 -2 -3 6 7 9 27 7 22 -2 34 2 39 14
6 14 7 13 7 -3 1 -12 6 -16 16 -13 8 4 17 2 20 -4 9 -13 25 -2 35 25 9 21 9
21 9 -2 1 -13 5 -20 11 -17 5 3 19 1 31 -6 17 -8 20 -8 14 1 -6 9 1 10 24 5
29 -6 31 -5 31 24 0 29 -1 30 -45 27 -25 -1 -45 0 -45 4 0 7 -63 7 -110 0z
m57 -32 c-3 -8 -6 -5 -6 6 -1 11 2 17 5 13 3 -3 4 -12 1 -19z m-167 2 c0 -5
-7 -10 -16 -10 -8 0 -12 5 -9 10 3 6 10 10 16 10 5 0 9 -4 9 -10z"/>
<path d="M576 1310 c-10 -21 2 -44 27 -51 24 -6 28 -4 34 19 6 25 6 25 14 4 5
-12 13 -22 19 -22 5 0 10 -4 10 -9 0 -6 -9 -8 -20 -6 -12 2 -18 0 -15 -6 4 -5
11 -7 16 -4 5 3 6 -1 3 -10 -5 -12 -10 -13 -17 -6 -6 6 -15 11 -19 11 -12 0
-10 -58 2 -65 6 -3 10 2 10 12 1 16 1 16 10 1 11 -18 47 -17 42 2 -1 6 2 9 8
5 5 -3 10 -13 10 -22 0 -12 3 -13 15 -3 8 6 19 9 25 5 6 -4 16 -2 23 3 7 6 17
10 22 10 6 0 15 -4 22 -10 7 -5 17 -7 22 -4 5 4 12 2 16 -4 4 -6 12 -7 24 -1
10 6 42 8 71 5 37 -3 56 -1 62 8 6 11 8 10 8 0 0 -9 7 -11 21 -7 15 5 19 4 14
-5 -5 -9 -3 -9 11 -2 11 5 25 7 32 5 7 -3 12 4 12 17 0 12 4 18 10 15 6 -4 8
-10 5 -15 -8 -12 10 -21 29 -14 9 3 14 15 12 27 -3 20 -9 22 -80 22 -42 0 -76
3 -76 7 0 4 -12 3 -27 -1 -16 -4 -57 -6 -93 -5 -55 1 -68 -2 -82 -20 -18 -21
-18 -21 -18 7 0 25 -3 28 -27 25 -19 -2 -30 -11 -35 -28 -8 -25 -8 -25 -4 2 2
22 -1 27 -18 25 -22 -2 -29 27 -13 50 20 28 0 41 -58 40 -31 -1 -58 -4 -59 -7z
m194 -115 c0 -8 -4 -15 -10 -15 -5 0 -10 7 -10 15 0 8 5 15 10 15 6 0 10 -7
10 -15z"/>
<path d="M1314 1286 c1 -8 5 -18 8 -22 4 -3 5 1 4 10 -1 8 -5 18 -8 22 -4 3
-5 -1 -4 -10z"/>
<path d="M495 1206 c4 -45 4 -46 16 -46 5 0 7 6 3 13 -6 9 -4 9 8 -1 21 -17
60 -9 69 14 11 28 10 46 -2 39 -14 -10 -69 -13 -63 -4 2 4 -5 9 -15 12 -15 4
-18 -1 -16 -27z"/>
<path d="M1187 1227 c-3 -8 1 -14 8 -14 7 0 11 6 8 14 -3 7 -6 13 -8 13 -2 0
-5 -6 -8 -13z"/>
<path d="M116 1098 l1 -33 79 0 79 0 3 33 3 32 -83 0 -83 0 1 -32z"/>
<path d="M318 1124 c6 -3 12 -18 12 -34 0 -44 49 -50 51 -7 1 16 3 17 6 5 4
-16 47 -33 62 -24 5 3 8 16 7 28 -1 18 -8 24 -31 25 -16 2 -50 5 -75 8 -25 3
-39 2 -32 -1z m39 -51 c-3 -10 -5 -4 -5 12 0 17 2 24 5 18 2 -7 2 -21 0 -30z"/>
<path d="M477 1123 c-2 -5 -3 -15 -2 -23 1 -8 3 -21 3 -28 1 -8 8 -12 15 -9 6
2 19 1 28 -4 13 -6 15 -2 11 23 -3 21 -1 29 7 24 6 -4 11 -16 11 -26 0 -14 5
-18 17 -13 12 5 14 3 8 -7 -6 -10 -4 -11 6 -4 8 5 23 9 34 9 15 0 21 8 23 28
3 28 2 29 -32 24 -20 -3 -36 -1 -36 4 0 14 -58 11 -63 -3 -4 -10 -6 -10 -6 0
-1 13 -18 17 -24 5z"/>
<path d="M768 1123 c-15 -2 -29 -12 -31 -21 -4 -16 -5 -16 -6 0 -1 12 -10 16
-33 15 -20 -1 -33 -7 -32 -14 1 -7 2 -19 3 -26 1 -10 16 -14 51 -13 41 1 51 5
57 21 6 19 7 18 13 -5 l7 -25 11 25 c10 24 11 24 11 3 1 -20 6 -21 62 -21 52
1 62 4 69 22 10 28 2 39 -22 33 -11 -3 -31 -1 -45 4 -18 6 -22 6 -17 -3 5 -8
2 -9 -10 -5 -29 11 -59 15 -88 10z m142 -31 c0 -5 -7 -9 -15 -9 -8 0 -15 4
-15 9 0 4 7 8 15 8 8 0 15 -4 15 -8z"/>
<path d="M974 1116 c-13 -34 0 -50 44 -52 37 -1 42 1 43 20 1 20 1 20 7 1 5
-13 16 -20 35 -21 24 0 27 3 27 33 0 29 -3 33 -26 33 -14 0 -22 -4 -19 -10 3
-5 0 -8 -7 -6 -7 3 -32 7 -56 10 -32 5 -44 3 -48 -8z"/>
<path d="M313 1034 c0 -8 4 -14 9 -14 4 0 8 -13 8 -30 0 -41 20 -38 21 3 l1
32 7 -29 c5 -27 10 -30 49 -33 42 -2 43 -2 46 40 1 6 -10 12 -24 13 -30 0 -79
12 -101 24 -11 5 -16 4 -16 -6z"/>
<path d="M516 1024 c-10 -10 -16 -10 -18 -2 -8 23 -25 -2 -20 -30 3 -24 8 -28
27 -24 13 2 26 14 30 25 7 21 8 21 12 -3 3 -14 9 -29 15 -35 8 -7 9 -6 4 2 -3
6 -2 14 4 18 5 3 10 2 10 -2 0 -5 12 -9 28 -8 22 0 27 5 27 25 0 22 -4 25 -32
25 -18 0 -33 3 -33 6 0 14 -41 16 -54 3z m81 -36 c-3 -8 -6 -5 -6 6 -1 11 2
17 5 13 3 -3 4 -12 1 -19z"/>
<path d="M740 1030 c0 -12 -9 -15 -40 -12 l-41 4 3 -35 c2 -38 17 -41 19 -4 1
17 2 18 6 5 2 -10 8 -18 13 -18 5 0 11 8 13 18 4 14 5 14 6 -3 1 -18 8 -20 76
-21 68 -1 74 1 78 20 4 20 4 20 6 -1 1 -23 21 -33 21 -11 0 7 5 5 13 -4 18
-25 53 -28 49 -4 -2 10 1 16 6 12 5 -3 8 5 7 17 -1 14 -8 21 -19 19 -9 -2 -16
1 -16 6 0 5 -19 8 -42 5 -79 -8 -141 -4 -150 9 -6 10 -8 9 -8 -2z m193 -45 c4
-8 3 -16 -1 -19 -4 -3 -9 4 -9 15 -2 23 3 25 10 4z"/>
<path d="M1241 1032 c-1 -8 -12 -12 -28 -11 -67 5 -102 -1 -106 -18 -4 -15 -5
-15 -6 -2 -1 13 -12 16 -53 15 -49 -1 -53 -3 -53 -26 0 -25 1 -25 92 -25 50 0
95 -3 98 -7 4 -4 15 -4 24 1 20 10 102 8 120 -4 10 -6 12 -4 6 5 -6 10 -4 12
8 7 9 -3 19 -2 22 2 3 5 -2 11 -10 15 -9 3 -12 12 -8 22 5 15 2 16 -25 11 -17
-4 -34 -2 -38 4 -4 7 -10 6 -19 -1 -10 -8 -14 -7 -18 7 -3 10 -5 12 -6 5z
m-211 -36 c0 -3 -4 -8 -10 -11 -5 -3 -10 -1 -10 4 0 6 5 11 10 11 6 0 10 -2
10 -4z"/>
<path d="M117 1023 c-6 -12 -1 -68 6 -65 4 1 41 2 83 2 l75 0 -3 33 -3 32 -77
3 c-42 2 -78 -1 -81 -5z m143 -33 c0 -18 -7 -20 -65 -20 -58 0 -65 2 -65 20 0
18 7 20 65 20 58 0 65 -2 65 -20z"/>
<path d="M2952 978 c-5 -7 -12 -22 -14 -33 -1 -11 -12 -22 -23 -25 -11 -3 -28
-23 -38 -43 -9 -20 -23 -37 -31 -37 -8 0 -16 -7 -20 -15 -7 -18 -37 -20 -55
-2 -11 9 -12 9 -7 0 4 -8 -2 -15 -18 -19 -20 -5 -26 -14 -32 -49 -3 -24 -3
-58 1 -75 4 -18 3 -30 -1 -27 -5 3 -10 -9 -10 -26 -1 -20 -9 -36 -23 -45 -18
-13 -21 -24 -21 -87 0 -97 20 -125 89 -125 33 0 54 6 68 19 22 21 60 93 66
126 6 34 39 105 46 101 4 -3 8 9 9 26 1 17 11 42 22 56 11 13 20 37 20 52 0
15 7 41 15 56 21 42 18 88 -9 140 -18 33 -26 41 -34 32z m28 -97 c0 -34 -4
-51 -15 -55 -9 -3 -15 -18 -15 -40 0 -19 -7 -47 -15 -63 -8 -15 -24 -50 -35
-76 -11 -27 -23 -46 -27 -44 -5 3 -9 -10 -10 -29 -1 -19 -9 -48 -17 -66 -9
-17 -16 -36 -16 -42 0 -6 -10 -23 -23 -38 -28 -34 -101 -49 -111 -23 -3 9 -3
22 1 27 3 7 1 8 -5 4 -9 -5 -12 7 -12 40 0 35 6 54 23 72 12 14 16 22 10 18
-7 -4 -13 -2 -13 4 0 6 6 13 13 16 17 6 19 21 18 102 -2 74 20 108 63 100 14
-3 26 -1 26 4 0 6 7 8 15 4 8 -3 14 0 12 7 -1 7 3 11 9 10 6 -1 20 14 30 34
11 20 25 38 33 41 8 3 11 0 7 -7 -4 -6 -5 -11 -2 -11 3 0 12 14 21 30 23 44
35 37 35 -19z m-280 -325 c0 -3 -4 -8 -10 -11 -5 -3 -10 -1 -10 4 0 6 5 11 10
11 6 0 10 -2 10 -4z"/>
<path d="M687 928 c-3 -10 -13 -15 -25 -11 -14 3 -21 -2 -25 -16 -5 -21 -27
-30 -27 -11 0 6 5 10 10 10 6 0 10 4 10 9 0 6 -20 9 -45 7 -25 -1 -45 1 -45 6
0 4 -4 8 -10 8 -15 0 -12 -56 3 -69 8 -6 17 -8 21 -4 11 12 179 12 200 1 14
-8 17 -7 11 3 -6 9 -3 11 8 6 12 -4 17 -1 17 11 0 14 2 15 10 2 13 -20 24 -6
16 23 -5 22 -9 24 -46 17 -24 -4 -40 -3 -40 2 0 6 -6 8 -14 5 -8 -3 -16 -1
-19 6 -2 6 -6 4 -10 -5z"/>
<path d="M320 905 c0 -39 0 -40 17 -37 10 2 13 -1 8 -10 -3 -7 5 1 19 17 l26
30 0 -25 c1 -24 1 -24 15 -6 13 17 15 18 15 3 0 -9 5 -17 10 -17 6 0 10 5 10
11 0 8 4 8 14 0 22 -18 48 -2 44 28 -3 25 -6 26 -73 28 -45 2 -72 -2 -77 -10
-6 -9 -8 -9 -8 1 0 6 -4 12 -10 12 -5 0 -10 -11 -10 -25z m156 -22 c-11 -11
-19 6 -11 24 8 17 8 17 12 0 3 -10 2 -21 -1 -24z"/>
<path d="M118 915 c-2 -3 -3 -18 0 -35 l4 -30 79 0 79 0 0 35 0 35 -78 0 c-43
0 -81 -2 -84 -5z m139 -30 c0 -12 -14 -15 -64 -15 -49 0 -63 3 -63 15 0 12 14
15 63 15 50 0 64 -3 64 -15z"/>
</g>
</svg>
